<?xml version="1.0" encoding="UTF-8" standalone="no"?>
<svg xmlns:dc="http://purl.org/dc/elements/1.1/" xmlns:cc="http://creativecommons.org/ns#" xmlns:rdf="http://www.w3.org/1999/02/22-rdf-syntax-ns#" xmlns:svg="http://www.w3.org/2000/svg" xmlns="http://www.w3.org/2000/svg" xmlns:sodipodi="http://sodipodi.sourceforge.net/DTD/sodipodi-0.dtd" xmlns:inkscape="http://www.inkscape.org/namespaces/inkscape" viewBox="0 -410 2048 2048" id="svg2" version="1.1" inkscape:version="0.91 r13725" sodipodi:docname="hal-b.svg">
  <metadata id="metadata12">
    <rdf:RDF>
      <cc:Work rdf:about="">
        <dc:format>image/svg+xml</dc:format>
        <dc:type rdf:resource="http://purl.org/dc/dcmitype/StillImage"/>
        <dc:title/>
      </cc:Work>
    </rdf:RDF>
  </metadata>
  <defs id="defs10"/>
  <sodipodi:namedview pagecolor="#000000" bordercolor="#666666" borderopacity="1" objecttolerance="10" gridtolerance="10" guidetolerance="10" inkscape:pageopacity="0" inkscape:pageshadow="2" inkscape:window-width="1315" inkscape:window-height="744" id="namedview8" showgrid="false" inkscape:zoom="0.11523438" inkscape:cx="-389.2301" inkscape:cy="1024" inkscape:window-x="51" inkscape:window-y="24" inkscape:window-maximized="1" inkscape:current-layer="svg2"/>
  <g transform="matrix(1.4423062,0,0,-1.4423062,149.21587,1400.9988)" inkscape:label="hal" id="g3342" style="fill:#ffffff;fill-opacity:1">
    <g id="g3344" style="fill:#ffffff;fill-opacity:1">
      <path inkscape:connector-curvature="0" id="path3346" style="fill:#ffffff;fill-opacity:1;fill-rule:nonzero;stroke:none" d="m 511.559,434.461 c 18.863,2.368 29.132,10.981 36.363,30.504 l 3.312,8.938 75.403,0.254 75.406,0.257 2.395,-6.257 c 6.492,-16.969 12.628,-24.77 23.48,-29.848 12.766,-5.973 34.375,-6.016 46.504,-0.094 14.637,7.141 24.543,25.586 22.621,42.121 -0.813,7.028 -46.488,125.567 -48.383,125.567 -0.691,0 -17.101,-14.532 -36.469,-32.289 l -35.211,-32.285 -49.406,0.054 c -27.176,0.028 -49.527,0.176 -49.676,0.324 -0.234,0.231 9.934,26.457 41.274,106.446 4.762,12.148 7.945,19.008 8.625,18.586 0.683,-0.422 0.848,-0.059 0.441,1 -0.351,0.914 -0.449,1.664 -0.218,1.664 0.23,0 27.218,-13.242 59.968,-29.422 32.754,-16.184 59.547,-29.078 59.547,-28.652 0,0.425 -16.441,43.25 -36.539,95.171 -25.531,65.95 -37.629,95.993 -40.141,99.68 -6.082,8.918 -12.351,12.969 -24.195,15.641 -16.191,3.648 -32.566,2.75 -46.805,-2.571 -6.3,-2.355 -16.531,-11.492 -19.679,-17.582 C 578.785,798.182 473.902,529.682 461.32,496.6 c -2.195,-5.778 -4.34,-12.977 -4.765,-16 -3.102,-22.082 13.367,-44.106 35.082,-46.918 9.226,-1.196 10.543,-1.199 19.922,-0.024 z m -332.7,0.907 c 16.098,2.636 29.278,13.652 33.829,28.273 1.699,5.461 1.847,10.195 1.847,58.848 l 0,52.914 138,0 0,-50.317 c 0,-31.922 0.399,-52.488 1.09,-56.25 3,-16.39 17.293,-30.367 34.242,-33.492 17.363,-3.199 39.192,8.203 47.297,24.707 l 2.871,5.852 0.262,162.687 c 0.254,160.703 0.234,162.754 -1.746,168.047 -2.836,7.574 -7.227,13.102 -14.586,18.352 -9.328,6.656 -15.938,8.789 -27.43,8.855 -8.605,0.051 -10.109,-0.234 -16,-3.031 -12.941,-6.145 -22.57,-18.067 -24.91,-30.844 -0.707,-3.863 -1.09,-27.691 -1.09,-68.25 l 0,-62.316 -138,0 0,64.894 c 0,61.91 -0.09,65.184 -1.98,71.25 -3.489,11.172 -13.274,21.371 -25.02,26.067 -7.758,3.105 -24.801,3.07 -33.418,-0.067 -12.082,-4.398 -20.664,-11.828 -25.445,-22.027 l -2.637,-5.617 -0.297,-161 c -0.332,-180.25 -0.8,-167.895 6.86,-179.34 9.406,-14.055 27.672,-21.242 46.261,-18.195 z m 889.219,1.586 c 11.57,3.011 21.836,11.406 27.125,22.179 2.633,5.36 2.832,6.617 2.832,17.77 0,10.949 -0.234,12.504 -2.703,17.765 -3.672,7.84 -12.047,16.008 -20.52,20.024 l -6.777,3.211 -165.469,0.554 -0.531,276.446 -2.781,5.664 c -3.461,7.051 -13.383,16.547 -21.383,20.472 -5.512,2.704 -6.555,2.864 -18.836,2.864 -12.469,0 -13.262,-0.129 -19.5,-3.098 -13.031,-6.211 -21.816,-17.383 -23.933,-30.437 -0.7,-4.313 -1.047,-57.571 -1.04,-159.965 0.008,-167.309 -0.183,-161.43 5.661,-172.164 5.679,-10.438 15.437,-18.305 26.339,-21.235 8.465,-2.277 212.793,-2.324 221.516,-0.05 z"/>
    </g>
  </g>
</svg>
