<?xml version="1.0" encoding="UTF-8" standalone="no"?>
<svg xmlns:dc="http://purl.org/dc/elements/1.1/" xmlns:cc="http://creativecommons.org/ns#" xmlns:rdf="http://www.w3.org/1999/02/22-rdf-syntax-ns#" xmlns:svg="http://www.w3.org/2000/svg" xmlns="http://www.w3.org/2000/svg" xmlns:sodipodi="http://sodipodi.sourceforge.net/DTD/sodipodi-0.dtd" xmlns:inkscape="http://www.inkscape.org/namespaces/inkscape" viewBox="0 -410 2048 2048" id="svg2" version="1.1" inkscape:version="0.91 r13725" sodipodi:docname="publons-b.svg">
  <metadata id="metadata12">
    <rdf:RDF>
      <cc:Work rdf:about="">
        <dc:format>image/svg+xml</dc:format>
        <dc:type rdf:resource="http://purl.org/dc/dcmitype/StillImage"/>
        <dc:title/>
      </cc:Work>
    </rdf:RDF>
  </metadata>
  <defs id="defs10"/>
  <sodipodi:namedview pagecolor="#ffffff" bordercolor="#666666" borderopacity="1" objecttolerance="10" gridtolerance="10" guidetolerance="10" inkscape:pageopacity="0" inkscape:pageshadow="2" inkscape:window-width="1315" inkscape:window-height="744" id="namedview8" showgrid="false" inkscape:zoom="0.11523438" inkscape:cx="-1553.3559" inkscape:cy="1024" inkscape:window-x="51" inkscape:window-y="24" inkscape:window-maximized="1" inkscape:current-layer="svg2"/>
  <g transform="matrix(1,0,0,-1,0,1492)" id="g4" style="fill:#1d4165;fill-opacity:1">
    <path d="m 1582,1340 q -11,26 -26.5,51 -15.5,25 -32.5,48 -43,53 -98,95 -55,42 -121,60 -50,14 -102,15 -52,1 -102,-10 -50,-11 -97,-33 -47,-22 -88,-53 -18,-13 -33.5,-28.5 Q 866,1469 852,1453 q -7,35 -11,71 -4,36 -12,72 -4,4 -8.5,9 -4.5,5 -11.5,4 -18,0 -34.5,-6.5 Q 758,1596 742,1590 672,1560 603,1529.5 534,1499 465,1469 q -8,-4 -16,-7 -8,-3 -12,-10 -2,-10 -2,-20 0,-10 1,-20 5,-9 14,-14.5 9,-5.5 17,-10.5 23,-13 46,-24.5 23,-11.5 42,-28.5 18,-15 27.5,-36 9.5,-21 10.5,-43 1,-8 1.5,-15.5 0.5,-7.5 0.5,-14.5 l 0,-272 0,-272.5 0,-272.5 0,-272 Q 593,102 593,67.5 593,33 588,-1 585,-17 575.5,-32.5 566,-48 548,-51 522,-53 495.5,-51.5 469,-50 443,-53 q -7,0 -9.5,-6 -2.5,-6 -2.5,-12 l 0,-31.5 0,-31.5 q 0,-4 3.5,-6.5 3.5,-2.5 6.5,-5.5 49,1 98,3.5 49,2.5 98,3.5 47,1 94,1 47,0 93.5,-1 46.5,-1 93.5,-3 47,-1 94,-4 7,0 16.5,1.5 9.5,1.5 10.5,10.5 2,17 2,33.5 0,16.5 -2,33.5 0,8 -6,11.5 -6,3.5 -12,3.5 -21,1 -41,0.5 -20,-0.5 -40,-0.5 -12,1 -24.5,0.5 Q 903,-52 892,-46 q -10,7 -15,18.5 -5,11.5 -8,23.5 -8,42 -7.5,85.5 0.5,43.5 -1.5,87.5 0,48 -1,96 -1,48 -1.5,96 -0.5,48 -0.5,97 -1,48 -1,96 40,-18 83,-28 43,-10 86,-14 75,-7 150.5,8 75.5,15 142.5,51 42,23 78,53 37,30 68,65.5 31,35.5 56,76.5 25,40 44,84 28,68 41,141.5 13,73.5 12,147.5 0,51 -7.5,102 -7.5,51 -27.5,99 l 0,0 z M 1338,810 q -15,-54 -46,-102 -31,-48 -81,-75 -43,-24 -91.5,-24.5 -48.5,-0.5 -94.5,8.5 -35,7 -67,24.5 -32,17.5 -60,41.5 -23,22 -32.5,54 -9.5,32 -9.5,64 l 0,138 0,138.5 0,138.5 q 0,70 1,139 31,44 79,71.5 48,27.5 101,34.5 50,7 100,-8.5 50,-15.5 87,-51.5 49,-48 75.5,-111.5 26.5,-63.5 40.5,-129.5 9,-43 14,-87 5,-44 5.5,-88.5 0.5,-44.5 -4.5,-88.5 -5,-44 -17,-86 l 0,0 z" id="path6" style="fill:#1d4165;fill-opacity:1" inkscape:connector-curvature="0"/>
  </g>
</svg>